<?xml version="1.0" encoding="UTF-8" standalone="no"?>
<svg width="27px" height="26px" viewBox="0 0 27 26" version="1.1" xmlns="http://www.w3.org/2000/svg" xmlns:xlink="http://www.w3.org/1999/xlink" xmlns:sketch="http://www.bohemiancoding.com/sketch/ns">
    <title>Search</title>
    <description>Created with Sketch (http://www.bohemiancoding.com/sketch)</description>
    <defs></defs>
    <g id="Page-1" stroke="none" stroke-width="1" fill="none" fill-rule="evenodd" sketch:type="MSPage">
        <path d="M0.529,23.7155714 L2.16353333,25.3321429 L7.23006667,20.3212857 L5.63886667,18.6635714 L0.529,23.7172857 L0.529,23.7155714 Z M15.9348667,0.667 C10.2720667,0.667 5.67873333,5.20814286 5.67873333,10.8104286 C5.67873333,13.003 6.39113333,15.0275714 7.58713333,16.6887143 L9.51633333,18.6995714 C11.2739333,20.1018571 13.4995333,20.9538571 15.9331333,20.9538571 C21.5976667,20.9538571 26.1892667,16.4127143 26.1892667,10.8104286 C26.1892667,5.20814286 21.5976667,0.667 15.9331333,0.667 L15.9348667,0.667 Z M15.9348667,18.667 C11.5547333,18.667 7.991,15.1424286 7.991,10.8104286 C7.991,6.47842857 11.5547333,2.95385714 15.9348667,2.95385714 C20.315,2.95385714 23.8787333,6.47842857 23.8787333,10.8104286 C23.8787333,15.1424286 20.315,18.667 15.9348667,18.667 L15.9348667,18.667 Z" id="Shape" fill="#DBEAFF" sketch:type="MSShapeGroup"></path>
    </g>
</svg>