<?xml version="1.0" encoding="utf-8"?>
<!-- Generator: Adobe Illustrator 15.0.2, SVG Export Plug-In  -->
<!DOCTYPE svg PUBLIC "-//W3C//DTD SVG 1.1//EN" "http://www.w3.org/Graphics/SVG/1.1/DTD/svg11.dtd" [
	<!ENTITY ns_flows "http://ns.adobe.com/Flows/1.0/">
]>
<svg version="1.1"
	 xmlns="http://www.w3.org/2000/svg" xmlns:xlink="http://www.w3.org/1999/xlink" xmlns:a="http://ns.adobe.com/AdobeSVGViewerExtensions/3.0/"
	 x="0px" y="0px" width="269px" height="34px" viewBox="0 0 269 34" overflow="visible" enable-background="new 0 0 269 34"
	 xml:space="preserve">
<defs>
</defs>
<path fill="#DCE9F7" d="M3.588,3.434H0v-3.05h10.805v3.05H7.216V13.94H3.588V3.434z"/>
<path fill="#DCE9F7" d="M19.906,0.384h3.628V13.94h-3.628V8.638h-4.705v5.303h-3.628V0.384h3.628v5.203h4.705V0.384z"/>
<path fill="#DCE9F7" d="M24.23,0.384h9.51v3.05h-5.881v2.233h4.904v2.891h-4.904v2.332h6.16v3.05H24.23V0.384z"/>
<path fill="#DCE9F7" d="M36.269,0.384h4.272l11.185,19.777v12.865H47.79V20.402L36.269,0.384z M58.687,0.384h4.128L52.207,19.298
	L41.55,0.384h4.32l6.433,11.953L58.687,0.384z M52.591,33.027V20.21L63.775,0.384h4.081L56.527,20.162v12.865H52.591z"/>
<path fill="#DCE9F7" d="M69.618,20.402V0.384h3.937v19.97c0,6.48,4.08,9.744,10.225,9.744c6.192,0,10.226-3.264,10.226-9.744V0.384
	h3.936v20.018c0,8.784-6,13.104-14.161,13.104C75.619,33.506,69.618,29.186,69.618,20.402z M74.419,20.354V0.384h3.937v19.921
	c0,3.552,1.728,5.568,5.424,5.568s5.425-2.016,5.425-5.568V0.384h3.937v19.97c0,5.904-3.648,8.881-9.361,8.881
	C78.115,29.235,74.419,26.258,74.419,20.354z"/>
<path fill="#DCE9F7" d="M99.991,0.384h3.937v29.427h18.674v3.216h-22.61V0.384z M122.602,28.946h-17.81V0.384h3.937v25.298h13.873
	V28.946z"/>
<path fill="#DCE9F7" d="M124.47,0.384h22.898v3.264h-18.962v26.163h19.634v3.216h-23.57V0.384z M145.016,16.177h-15.745V4.512
	h18.098v3.216h-14.161v5.376h11.809V16.177z M148.04,28.946h-18.77V17.042h15.745v3.024h-11.809v5.616h14.833V28.946z"/>
<path fill="#DCE9F7" d="M150.169,0.384h14.161c6.48,0,10.657,2.976,10.657,8.448c0,3.889-1.92,6.049-4.513,7.009
	c3.024,0.864,5.905,3.072,5.905,7.729c0,5.952-4.369,9.457-12.481,9.457h-13.729V0.384z M163.13,13.153
	c2.4,0,3.312-1.104,3.312-2.928c0-1.824-0.815-2.977-3.216-2.977h-4.608v5.905H163.13z M163.851,26.162
	c2.832,0,3.792-1.296,3.792-3.408s-1.008-3.36-3.792-3.36h-5.232v6.769H163.851z"/>
<path fill="#DCE9F7" d="M178.201,0.384h8.737v25.298h13.873v7.345h-22.61V0.384z"/>
<path fill="#DCE9F7" d="M200.543,16.706C200.543,6.865,208.655,0,218.064,0s17.521,6.865,17.521,16.706s-8.112,16.754-17.521,16.754
	S200.543,26.546,200.543,16.706z M226.657,16.706c0-5.137-3.12-9.121-8.593-9.121s-8.593,3.984-8.593,9.121
	c0,5.136,3.12,9.168,8.593,9.168S226.657,21.842,226.657,16.706z"/>
<path fill="#DCE9F7" d="M261.106,21.554h-6.48v-6.72h14.257v14.112c-3.023,2.497-6.96,4.514-14.209,4.514
	c-9.601,0-17.569-6.913-17.569-16.754S245.073,0,254.482,0c5.76,0,10.272,2.16,13.104,5.809l-6.097,5.28
	c-1.632-2.112-3.936-3.504-7.2-3.504c-5.328,0-8.257,3.984-8.257,9.121c0,5.136,2.977,9.409,8.737,9.409
	c3.168,0,4.944-0.624,6.336-1.296V21.554z"/>
</svg>
