<?xml version="1.0" encoding="UTF-8" standalone="no"?>
<svg width="269px" height="34px" viewBox="0 0 269 34" version="1.1" xmlns="http://www.w3.org/2000/svg" xmlns:xlink="http://www.w3.org/1999/xlink" xmlns:sketch="http://www.bohemiancoding.com/sketch/ns">
    <title>Slice 1</title>
    <description>Created with Sketch (http://www.bohemiancoding.com/sketch)</description>
    <defs></defs>
    <g id="Page-1" stroke="none" stroke-width="1" fill="none" fill-rule="evenodd" sketch:type="MSPage">
        <g id="logo" sketch:type="MSLayerGroup" fill="#DCE9F7">
            <path d="M3.588,3.434 L0,3.434 L0,0.384 L10.805,0.384 L10.805,3.434 L7.216,3.434 L7.216,13.94 L3.588,13.94 L3.588,3.434 L3.588,3.434 Z" id="Shape" sketch:type="MSShapeGroup"></path>
            <path d="M19.906,0.384 L23.534,0.384 L23.534,13.94 L19.906,13.94 L19.906,8.638 L15.201,8.638 L15.201,13.941 L11.573,13.941 L11.573,0.384 L15.201,0.384 L15.201,5.587 L19.906,5.587 L19.906,0.384 L19.906,0.384 Z" id="Shape" sketch:type="MSShapeGroup"></path>
            <path d="M24.23,0.384 L33.74,0.384 L33.74,3.434 L27.859,3.434 L27.859,5.667 L32.763,5.667 L32.763,8.558 L27.859,8.558 L27.859,10.89 L34.019,10.89 L34.019,13.94 L24.23,13.94 L24.23,0.384 L24.23,0.384 Z" id="Shape" sketch:type="MSShapeGroup"></path>
            <path d="M36.269,0.384 L40.541,0.384 L51.726,20.161 L51.726,33.026 L47.79,33.026 L47.79,20.402 L36.269,0.384 L36.269,0.384 Z M58.687,0.384 L62.815,0.384 L52.207,19.298 L41.55,0.384 L45.87,0.384 L52.303,12.337 L58.687,0.384 L58.687,0.384 Z M52.591,33.027 L52.591,20.21 L63.775,0.384 L67.856,0.384 L56.527,20.162 L56.527,33.027 L52.591,33.027 L52.591,33.027 Z" id="Shape" sketch:type="MSShapeGroup"></path>
            <path d="M69.618,20.402 L69.618,0.384 L73.555,0.384 L73.555,20.354 C73.555,26.834 77.635,30.098 83.78,30.098 C89.972,30.098 94.006,26.834 94.006,20.354 L94.006,0.384 L97.942,0.384 L97.942,20.402 C97.942,29.186 91.942,33.506 83.781,33.506 C75.619,33.506 69.618,29.186 69.618,20.402 L69.618,20.402 Z M74.419,20.354 L74.419,0.384 L78.356,0.384 L78.356,20.305 C78.356,23.857 80.084,25.873 83.78,25.873 C87.476,25.873 89.205,23.857 89.205,20.305 L89.205,0.384 L93.142,0.384 L93.142,20.354 C93.142,26.258 89.494,29.235 83.781,29.235 C78.115,29.235 74.419,26.258 74.419,20.354 L74.419,20.354 Z" id="Shape" sketch:type="MSShapeGroup"></path>
            <path d="M99.991,0.384 L103.928,0.384 L103.928,29.811 L122.602,29.811 L122.602,33.027 L99.992,33.027 L99.992,0.384 L99.991,0.384 Z M122.602,28.946 L104.792,28.946 L104.792,0.384 L108.729,0.384 L108.729,25.682 L122.602,25.682 L122.602,28.946 L122.602,28.946 Z" id="Shape" sketch:type="MSShapeGroup"></path>
            <path d="M124.47,0.384 L147.368,0.384 L147.368,3.648 L128.406,3.648 L128.406,29.811 L148.04,29.811 L148.04,33.027 L124.47,33.027 L124.47,0.384 L124.47,0.384 Z M145.016,16.177 L129.271,16.177 L129.271,4.512 L147.369,4.512 L147.369,7.728 L133.208,7.728 L133.208,13.104 L145.017,13.104 L145.017,16.177 L145.016,16.177 Z M148.04,28.946 L129.27,28.946 L129.27,17.042 L145.015,17.042 L145.015,20.066 L133.206,20.066 L133.206,25.682 L148.039,25.682 L148.039,28.946 L148.04,28.946 Z" id="Shape" sketch:type="MSShapeGroup"></path>
            <path d="M150.169,0.384 L164.33,0.384 C170.81,0.384 174.987,3.36 174.987,8.832 C174.987,12.721 173.067,14.881 170.474,15.841 C173.498,16.705 176.379,18.913 176.379,23.57 C176.379,29.522 172.01,33.027 163.898,33.027 L150.169,33.027 L150.169,0.384 L150.169,0.384 Z M163.13,13.153 C165.53,13.153 166.442,12.049 166.442,10.225 C166.442,8.401 165.627,7.248 163.226,7.248 L158.618,7.248 L158.618,13.153 L163.13,13.153 L163.13,13.153 Z M163.851,26.162 C166.683,26.162 167.643,24.866 167.643,22.754 C167.643,20.642 166.635,19.394 163.851,19.394 L158.619,19.394 L158.619,26.163 L163.851,26.163 L163.851,26.162 Z" id="Shape" sketch:type="MSShapeGroup"></path>
            <path d="M178.201,0.384 L186.938,0.384 L186.938,25.682 L200.811,25.682 L200.811,33.027 L178.201,33.027 L178.201,0.384 L178.201,0.384 Z" id="Shape" sketch:type="MSShapeGroup"></path>
            <path d="M200.543,16.706 C200.543,6.865 208.655,0 218.064,0 C227.473,0 235.585,6.865 235.585,16.706 C235.585,26.547 227.473,33.46 218.064,33.46 C208.655,33.46 200.543,26.546 200.543,16.706 L200.543,16.706 Z M226.657,16.706 C226.657,11.569 223.537,7.585 218.064,7.585 C212.591,7.585 209.471,11.569 209.471,16.706 C209.471,21.842 212.591,25.874 218.064,25.874 C223.537,25.874 226.657,21.842 226.657,16.706 L226.657,16.706 Z" id="Shape" sketch:type="MSShapeGroup"></path>
            <path d="M261.106,21.554 L254.626,21.554 L254.626,14.834 L268.883,14.834 L268.883,28.946 C265.86,31.443 261.923,33.46 254.674,33.46 C245.073,33.46 237.105,26.547 237.105,16.706 C237.105,6.865 245.073,0 254.482,0 C260.242,0 264.754,2.16 267.586,5.809 L261.489,11.089 C259.857,8.977 257.553,7.585 254.289,7.585 C248.961,7.585 246.032,11.569 246.032,16.706 C246.032,21.842 249.009,26.115 254.769,26.115 C257.937,26.115 259.713,25.491 261.105,24.819 L261.105,21.554 L261.106,21.554 Z" id="Shape" sketch:type="MSShapeGroup"></path>
        </g>
    </g>
</svg>